<svg xmlns="http://www.w3.org/2000/svg" viewBox="0 12.949999809265137 407.1000061035156 32.04999923706055" data-asc="0.9"><g fill="#000000"><g fill="#000000" transform="translate(0, 0)"><path d="M9.15 45Q5.60 45 3.60 44Q1.60 43 0.80 41Q0 39 0 36.05L0 24.90Q0 20.10 2.15 17.82Q4.30 15.55 9.15 15.55L24.20 15.55Q27.65 15.55 29.48 15.92Q31.30 16.30 31.30 16.70L30.30 20.85Q29.45 20.70 25.28 20.52Q21.10 20.35 13.15 20.35L10.60 20.35Q6.60 20.35 6.60 23.90L6.60 36.65Q6.60 38.35 7.48 39.27Q8.35 40.20 10.60 40.20L12.65 40.20Q20.95 40.20 25.53 40.02Q30.10 39.85 31.20 39.65L33.25 42.95Q33.25 43.20 32.43 43.70Q31.60 44.20 29.40 44.60Q27.20 45 23.05 45L9.15 45ZM43.35 45Q40 45 38.38 43.65Q36.75 42.30 36.75 39.25L36.75 29Q36.75 28.25 36.88 27.18Q37 26.10 37.58 25.05Q38.15 24 39.52 23.30Q40.90 22.60 43.35 22.60L57.15 22.60Q59.65 22.60 61 23.30Q62.35 24 62.92 25.05Q63.50 26.10 63.63 27.18Q63.75 28.25 63.75 29L63.75 38.60Q63.75 39.50 63.63 40.60Q63.50 41.70 62.90 42.70Q62.30 43.70 60.95 44.35Q59.60 45 57.15 45L43.35 45M45.25 40.70L55.25 40.70Q57.70 40.70 57.70 38.70L57.70 28.90Q57.70 26.90 55.25 26.90L45.25 26.90Q42.85 26.90 42.85 28.90L42.85 38.70Q42.85 40.70 45.25 40.70ZM72.80 19.45Q70.95 19.45 70.10 18.70Q69.25 17.95 69.25 16.20Q69.25 14.40 70.08 13.67Q70.90 12.95 72.80 12.95Q74.70 12.95 75.55 13.67Q76.40 14.40 76.40 16.20Q76.40 17.90 75.55 18.67Q74.70 19.45 72.80 19.45M69.75 45L69.75 22.60L75.85 22.60L75.85 45L69.75 45ZM82.40 45L82.40 22.60L86.50 22.60L88.50 23.60Q90.60 23.20 93.55 22.90Q96.50 22.60 100.30 22.60L102.80 22.60Q105.30 22.60 106.65 23.30Q108 24 108.58 25.05Q109.15 26.10 109.28 27.18Q109.40 28.25 109.40 29L109.40 45L103.30 45L103.30 28.90Q103.30 26.90 100.90 26.90L90 26.90Q89.05 26.90 88.78 27.07Q88.50 27.25 88.50 28L88.50 45L82.40 45ZM112.15 45L126.80 15.60L136.65 15.60L151.25 45L143.55 45L140.60 38.65L122.70 38.65L119.45 45L112.15 45M124.50 33.75L138.75 33.75L131.90 20.10L131.40 20.10L124.50 33.75ZM159.90 45Q156.55 45 155.15 44.65Q153.75 44.30 153.75 43.95L155.25 40.20Q156.70 40.35 160.57 40.52Q164.45 40.70 170.15 40.70L172.65 40.70Q173.90 40.70 174.22 40.02Q174.55 39.35 174.55 38.20Q174.55 37.05 174.18 36.35Q173.80 35.65 172.65 35.65L160.35 35.65Q156.85 35.65 155.30 34.33Q153.75 33 153.75 30.35L153.75 28.35Q153.75 27.65 153.90 26.70Q154.05 25.75 154.65 24.80Q155.25 23.85 156.60 23.22Q157.95 22.60 160.35 22.60L174.15 22.60Q177.15 22.60 178.40 22.95Q179.65 23.30 179.65 23.65L179.15 27.40Q177.70 27.25 173.80 27.07Q169.90 26.90 164.25 26.90L161.75 26.90Q160.50 26.90 160.18 27.57Q159.85 28.25 159.85 29.15Q159.85 30.10 160.18 30.73Q160.50 31.35 161.75 31.35L174.05 31.35Q177.45 31.35 179.05 32.75Q180.65 34.15 180.65 36.30L180.65 39.25Q180.65 40.15 180.53 41.15Q180.40 42.15 179.80 43.02Q179.20 43.90 177.85 44.45Q176.50 45 174.05 45L159.90 45ZM191.80 45Q188.45 45 187.05 44.65Q185.65 44.30 185.65 43.95L187.15 40.20Q188.60 40.35 192.47 40.52Q196.35 40.70 202.05 40.70L204.55 40.70Q205.80 40.70 206.13 40.02Q206.45 39.35 206.45 38.20Q206.45 37.05 206.08 36.35Q205.70 35.65 204.55 35.65L192.25 35.65Q188.75 35.65 187.20 34.33Q185.65 33 185.65 30.35L185.65 28.35Q185.65 27.65 185.80 26.70Q185.95 25.75 186.55 24.80Q187.15 23.85 188.50 23.22Q189.85 22.60 192.25 22.60L206.05 22.60Q209.05 22.60 210.30 22.95Q211.55 23.30 211.55 23.65L211.05 27.40Q209.60 27.25 205.70 27.07Q201.80 26.90 196.15 26.90L193.65 26.90Q192.40 26.90 192.08 27.57Q191.75 28.25 191.75 29.15Q191.75 30.10 192.08 30.73Q192.40 31.35 193.65 31.35L205.95 31.35Q209.35 31.35 210.95 32.75Q212.55 34.15 212.55 36.30L212.55 39.25Q212.55 40.15 212.43 41.15Q212.30 42.15 211.70 43.02Q211.10 43.90 209.75 44.45Q208.40 45 205.95 45L191.80 45ZM224.15 45Q221.65 45 220.30 44.35Q218.95 43.70 218.38 42.70Q217.80 41.70 217.68 40.60Q217.55 39.50 217.55 38.60L217.55 29Q217.55 28.25 217.68 27.18Q217.80 26.10 218.38 25.05Q218.95 24 220.33 23.30Q221.70 22.60 224.15 22.60L234.90 22.60Q238.20 22.60 240.08 23.22Q241.95 23.85 242.73 25.25Q243.50 26.65 243.50 29L243.50 36.40L234.75 36.40Q230.25 36.40 227.43 36.20Q224.60 36 223.65 35.95L223.65 38.70Q223.60 40.70 226.05 40.70L228.60 40.70Q231.30 40.70 233.88 40.63Q236.45 40.55 238.60 40.42Q240.75 40.30 242.05 40.20L244.05 43.45Q244.05 45 234.20 45L224.15 45M223.65 32.10L237.40 32.10L237.40 28.90Q237.40 27.90 237.18 27.50Q236.95 27.10 235.85 27Q234.75 26.90 232.10 26.90L226.05 26.90Q223.65 26.90 223.65 28.90L223.65 32.10ZM257.75 45Q253.95 45 252.55 43.40Q251.15 41.80 251.15 38.60L251.15 26.90L247.05 26.90L247.05 22.60L249.15 22.60Q250.10 22.60 250.53 22.30Q250.95 22 251.15 21.10L252.15 15.75L257.25 15.75L257.25 22.60L267.65 22.60L267.65 26.90L257.25 26.90L257.25 38.65Q257.25 39.90 257.85 40.30Q258.45 40.70 259.65 40.70L266.70 40.70L267.20 44.50Q266.15 44.65 264 44.83Q261.85 45 259.30 45L257.75 45ZM273.15 45L273.15 19.60L272.65 15.60L295.85 15.60Q299.90 15.60 302.08 16.60Q304.25 17.60 305.10 19.57Q305.95 21.55 305.95 24.50L305.95 36.05Q305.95 39.05 305.13 41.02Q304.30 43 302.13 44Q299.95 45 295.85 45L273.15 45M279.75 40.20L295.45 40.20Q299.30 40.20 299.35 36.65L299.35 23.90Q299.35 22.45 298.50 21.42Q297.65 20.40 295.45 20.40L279.75 20.40L279.75 40.20ZM311.95 45L311.95 22.60L316.05 22.60L317.95 23.60Q319.25 22.90 320.75 22.50Q322.25 22.10 324.55 22.10Q328.20 22.10 330.48 22.90Q332.75 23.70 333.50 24.10L331.75 28.45Q331.15 28.15 329.78 27.68Q328.40 27.20 326.55 26.80Q324.70 26.40 322.50 26.40L321.95 26.40Q319.55 26.40 318.83 27.35Q318.10 28.30 318.05 30.50L318.05 45L311.95 45ZM341.45 45Q337.65 45 335.95 43.23Q334.25 41.45 334.25 38.35Q334.25 35.10 336.03 33.35Q337.80 31.60 341.45 31.60L344.00 31.60Q347.75 31.60 350.75 31.80Q353.75 32 355.70 32.20L355.70 28.90Q355.70 28.45 355.60 27.97Q355.50 27.50 355.00 27.20Q354.50 26.90 353.30 26.90L350.80 26.90Q345.35 26.90 341.70 27.07Q338.05 27.25 336.75 27.40L336.20 23.60Q336.20 22.90 340.00 22.75Q343.80 22.60 352.70 22.60L355.20 22.60Q357.70 22.60 359.05 23.30Q360.40 24 360.98 25.05Q361.55 26.10 361.68 27.18Q361.80 28.25 361.80 29L361.80 45L357.70 45L355.75 44Q353.65 44.35 350.70 44.67Q347.75 45 343.95 45L341.45 45M342.75 40.70L354.20 40.70Q355.30 40.70 355.50 40.50Q355.70 40.30 355.70 39.25L355.70 35.40L342.75 35.40Q341.40 35.40 340.88 36.05Q340.35 36.70 340.35 38.10Q340.35 39.50 340.95 40.10Q341.55 40.70 342.75 40.70ZM373.10 45L365.05 22.60L372.05 22.60L376.10 35.30L377.40 39.75L377.90 39.75L378.65 35.80L382.10 22.60L390.10 22.60L393.75 35.80L394.45 39.75L394.95 39.75L396.30 35.20L400.10 22.60L407.10 22.60L406.30 25.65L399.10 45L391.10 45L386.95 31.25L386.45 28.90L385.95 28.90L385.35 31.25L381.10 45L373.10 45Z"/></g></g></svg>